# 3ds Max Wavefront OBJ Exporter v0.99 - (c)2007 guruware
# File Created: 31.12.2023 18:17:35

#
# object Box001
#

v  -0.5000 0.0000 0.5000
v  -0.5000 0.0000 -0.5000
v  0.5000 0.0000 -0.5000
v  0.5000 0.0000 0.5000
v  -0.5000 1.0000 0.5000
v  0.5000 1.0000 0.5000
v  0.5000 1.0000 -0.5000
v  -0.5000 1.0000 -0.5000
# 8 vertices

vn 0.0000 -1.0000 -0.0000
vn 0.0000 -1.0000 -0.0000
vn 0.0000 -1.0000 -0.0000
vn 0.0000 -1.0000 -0.0000
vn 0.0000 1.0000 -0.0000
vn 0.0000 1.0000 -0.0000
vn 0.0000 1.0000 -0.0000
vn 0.0000 1.0000 -0.0000
vn 0.0000 0.0000 1.0000
vn 0.0000 0.0000 1.0000
vn 0.0000 0.0000 1.0000
vn 0.0000 0.0000 1.0000
vn 1.0000 0.0000 -0.0000
vn 1.0000 0.0000 -0.0000
vn 1.0000 0.0000 -0.0000
vn 1.0000 0.0000 -0.0000
vn 0.0000 0.0000 -1.0000
vn 0.0000 0.0000 -1.0000
vn 0.0000 0.0000 -1.0000
vn 0.0000 0.0000 -1.0000
vn -1.0000 0.0000 -0.0000
vn -1.0000 0.0000 -0.0000
vn -1.0000 0.0000 -0.0000
vn -1.0000 0.0000 -0.0000
# 24 vertex normals

vt 1.0000 0.0000 0.0000
vt 1.0000 1.0000 0.0000
vt 0.0000 1.0000 0.0000
vt 0.0000 0.0000 0.0000
# 4 texture coords

o Box001
g Box001
f 2/2/1 3/3/2 4/4/3 1/1/4 
f 6/1/5 7/2/6 8/3/7 5/4/8 
f 4/1/9 6/2/10 5/3/11 1/4/12 
f 3/1/13 7/2/14 6/3/15 4/4/16 
f 2/1/17 8/2/18 7/3/19 3/4/20 
f 1/1/21 5/2/22 8/3/23 2/4/24 
# 6 polygons